<svg xmlns="http://www.w3.org/2000/svg" viewBox="0 0 32 32">
  <!-- Green rounded background square -->
  <rect width="32" height="32" rx="6" fill="#059669"/>

  <!-- White flame shape -->
  <path d="M16 4
    C16 4 20 9 20 14
    C20 15.5 19.5 17 18.5 18
    C19 16.5 18.5 14.5 17 13.5
    C17.5 15.5 17 17.5 16 19
    C15 17.5 14.5 15.5 15 13.5
    C13.5 14.5 13 16.5 13.5 18
    C12.5 17 12 15.5 12 14
    C12 9 16 4 16 4Z"
    fill="white"/>

  <!-- White wavy lines for heat -->
  <path d="M11 22 Q12.5 20.5 14 22 Q15.5 23.5 17 22 Q18.5 20.5 20 22"
    stroke="white" stroke-width="1.5" fill="none" stroke-linecap="round"/>
  <path d="M11 26 Q12.5 24.5 14 26 Q15.5 27.5 17 26 Q18.5 24.5 20 26"
    stroke="white" stroke-width="1.5" fill="none" stroke-linecap="round"/>
</svg>
