<svg width="40" height="40" viewBox="0 0 40 40" fill="none" xmlns="http://www.w3.org/2000/svg">
  <defs>
    <linearGradient id="flameGrad" x1="20" y1="5" x2="20" y2="35" gradientUnits="userSpaceOnUse">
      <stop offset="0%" stop-color="#10B981" />
      <stop offset="100%" stop-color="#065F46" />
    </linearGradient>
    <linearGradient id="gearGrad" x1="30" y1="10" x2="30" y2="30" gradientUnits="userSpaceOnUse">
      <stop offset="0%" stop-color="#0D9488" />
      <stop offset="100%" stop-color="#134E4A" />
    </linearGradient>
  </defs>
  <!-- Stylized Flame -->
  <path d="M20 5C20 5 28 15 28 22C28 29.732 21.732 36 14 36C6.26801 36 0 29.732 0 22C0 14.268 8 5 8 5C8 5 10 12 14 12C18 12 20 5 20 5Z" fill="url(#flameGrad)" opacity="0.9" />
  <!-- Gear Segment -->
  <path d="M38.5 20C38.5 28.5604 31.5604 35.5 23 35.5C21.2 35.5 19.5 35.2 17.9 34.6C18.6 33.2 19 31.6 19 30C19 23.4 13.6 18 7 18C6.3 18 5.6 18.06 5 18.17C6.1 11.2 12.1 5.8 19.3 5.5C18.1 7.1 17.5 9 17.5 11C17.5 17.1 22.4 22 28.5 22C29.6 22 30.6 21.84 31.5 21.55C32.1 23 32.5 24.5 32.5 26.1C32.5 27.7 32.1 29.2 31.5 30.6C34.3 29.3 36.5 26.9 37.6 24C38.2 22.7 38.5 21.4 38.5 20Z" fill="url(#gearGrad)" />
</svg>
